<svg id="All_glyphs" data-name="All glyphs" xmlns="http://www.w3.org/2000/svg" viewBox="0 0 92 92"><title>dribbble</title><path d="M-2521.49,3950.83a234,234,0,0,0-14.59-22.64,39.37,39.37,0,0,0-21.68,27.43A145.11,145.11,0,0,0-2521.49,3950.83Zm4.89,13.19,1.55-.46c-1-2.24-2.06-4.47-3.18-6.68a143.67,143.67,0,0,1-40.34,5.6c0,.41,0,.82,0,1.24a39.14,39.14,0,0,0,10.08,26.27l0,0S-2537.79,3970.88-2516.6,3964Zm-26.86,30.67h0c-.29-.23-.61-.44-.89-.68C-2543.82,3994.42-2543.46,3994.69-2543.46,3994.69Zm14.73-69.11-.1,0,.1,0Zm35.36,8.66a39.15,39.15,0,0,0-25.94-9.8,39.2,39.2,0,0,0-9.26,1.11,200.13,200.13,0,0,1,14.68,22.91C-2499.07,3942.91-2493.47,3934.4-2493.37,3934.24Zm-25.94,75.48a46,46,0,0,1-46-46,46,46,0,0,1,46-46,46,46,0,0,1,46,46A46,46,0,0,1-2519.31,4009.72Zm6.68-39.57c-23.06,8-30.67,24.2-30.82,24.53a39.1,39.1,0,0,0,24.14,8.33,39.13,39.13,0,0,0,15.33-3.11,163.71,163.71,0,0,0-8.39-29.84Zm1.77-15.83c.91,1.87,1.79,3.77,2.61,5.7.29.67.57,1.35.85,2a90.94,90.94,0,0,1,27.36,1.29,39.17,39.17,0,0,0-8.94-24.56C-2489.06,3938.89-2495.36,3948-2510.86,3954.32Zm5.85,13.93a170.18,170.18,0,0,1,7.65,28.06,39.31,39.31,0,0,0,16.83-26.35A56.73,56.73,0,0,0-2505,3968.25Z" transform="translate(2565.31 -3917.72)"/></svg>