<svg id="All_glyphs" data-name="All glyphs" xmlns="http://www.w3.org/2000/svg" viewBox="0 0 92 74.77"><title>twitter</title><path d="M-2073.32,3735.19a37.59,37.59,0,0,1-10.84,3,18.89,18.89,0,0,0,8.3-10.44,38,38,0,0,1-12,4.58,18.84,18.84,0,0,0-13.78-6,18.87,18.87,0,0,0-18.87,18.87,19,19,0,0,0,.49,4.3,53.57,53.57,0,0,1-38.91-19.72,18.84,18.84,0,0,0-2.55,9.49,18.86,18.86,0,0,0,8.39,15.71,18.66,18.66,0,0,1-8.55-2.36v.24a18.89,18.89,0,0,0,15.14,18.51,18.92,18.92,0,0,1-5,.66,18.91,18.91,0,0,1-3.55-.34,18.9,18.9,0,0,0,17.63,13.11,37.87,37.87,0,0,1-23.44,8.08,37.24,37.24,0,0,1-4.5-.27,53.37,53.37,0,0,0,28.93,8.49c34.72,0,53.71-28.77,53.71-53.71,0-.82,0-1.63-.06-2.44A38.22,38.22,0,0,0-2073.32,3735.19Z" transform="translate(2165.32 -3726.34)"/></svg>